<?xml version="1.0" standalone="no"?>
<!DOCTYPE svg PUBLIC "-//W3C//DTD SVG 20010904//EN"
 "http://www.w3.org/TR/2001/REC-SVG-20010904/DTD/svg10.dtd">
<svg version="1.0" xmlns="http://www.w3.org/2000/svg"
 width="500.000000pt" height="500.000000pt" viewBox="0 0 500.000000 500.000000"
 preserveAspectRatio="xMidYMid meet">

<g transform="translate(0.000000,500.000000) scale(0.100000,-0.100000)"
fill="#000000" stroke="none">
<path d="M1524 3269 c-239 -84 -535 -92 -826 -22 -100 24 -109 25 -132 10 -13
-9 -38 -45 -54 -79 -46 -97 -124 -335 -120 -365 5 -45 40 -40 214 27 141 55
164 62 214 58 61 -4 95 -24 130 -75 78 -113 71 -290 -26 -708 -15 -60 -28
-135 -31 -166 -5 -49 -2 -59 20 -85 25 -28 27 -29 154 -35 156 -8 210 -24 299
-89 77 -56 100 -61 114 -24 20 52 12 94 -65 369 -67 237 -115 563 -95 650 21
96 75 155 139 155 12 0 100 -26 197 -57 205 -66 227 -66 232 3 5 65 -128 404
-178 454 -28 28 -58 24 -186 -21z"/>
<path d="M2030 2525 l0 -455 60 0 60 0 0 200 0 200 193 2 192 3 3 48 3 47
-195 0 -196 0 0 155 0 155 225 0 225 0 0 50 0 50 -285 0 -285 0 0 -455z"/>
<path d="M2740 2526 l0 -456 150 0 c82 0 173 5 202 11 125 27 208 92 265 206
36 73 37 80 41 203 3 72 -1 150 -7 179 -27 124 -107 227 -219 279 -54 26 -65
27 -244 30 l-188 4 0 -456z m364 342 c26 -8 60 -31 91 -63 73 -72 88 -126 83
-298 -3 -121 -5 -137 -32 -190 -32 -67 -95 -119 -163 -136 -23 -6 -83 -11
-132 -11 l-91 0 0 355 0 355 101 0 c56 0 120 -5 143 -12z"/>
<path d="M3580 2525 l0 -455 61 0 61 0 -3 359 c-3 210 0 353 5 344 5 -9 71
-169 147 -357 l138 -341 48 0 48 0 142 350 c78 193 144 355 147 360 2 6 2
-153 -1 -352 l-6 -363 61 0 62 0 0 455 0 455 -78 0 -78 0 -149 -371 -148 -372
-147 369 -148 369 -81 3 -81 3 0 -456z"/>
</g>
</svg>
